# xmcd CD database file
#
# Track frame offsets:
#	150
#	13157
#	37045
#	53417
#	85442
#	106210
#	120592
#	139035
#	161965
#	176537
#	188020
#
# Disc length: 2705 seconds
#
# Revision: 3
# Processed by: cddbd v1.5.1PL0 Copyright (c) Steve Scherf et al.
# Submitted via: CDex 1.51
#
DISCID=8d0a8f0b
DTITLE=Wayne Horvitz - Cold Spell
DYEAR=1998
DGENRE=Jazz
TTITLE0=With the Space on Top
TTITLE1=Happens like That
TTITLE2=Sex Fiend
TTITLE3=Prudence RSVP
TTITLE4=Cold Spell
TTITLE5=Mel
TTITLE6=Let's Get Mashed
TTITLE7=Smiles
TTITLE8=The Gift
TTITLE9=Withdrawl Symptoms
TTITLE10=Daylight
EXTD=YEAR: 1998
EXTT0=
EXTT1=
EXTT2=
EXTT3=
EXTT4=
EXTT5=
EXTT6=
EXTT7=
EXTT8=
EXTT9=
EXTT10=
PLAYORDER=
